<svg width="1280" height="720" xmlns="http://www.w3.org/2000/svg" xmlns:xlink="http://www.w3.org/1999/xlink" overflow="hidden"><g><rect x="0" y="0" width="1280" height="720" fill="#FFFFFF"/><path d="M93.5001 390.167C93.5001 385.933 96.9326 382.5 101.167 382.5L259.833 382.5C264.068 382.5 267.5 385.933 267.5 390.167L267.5 420.833C267.5 425.068 264.068 428.5 259.833 428.5L101.167 428.5C96.9326 428.5 93.5001 425.068 93.5001 420.833Z" stroke="#172C51" stroke-width="3" stroke-miterlimit="8" fill="#FFFFFF" fill-rule="evenodd"/><text font-family="Poppins,Poppins_MSFontService,sans-serif" font-weight="400" font-size="16" transform="translate(128.039 410)">Start</text><text font-family="Poppins,Poppins_MSFontService,sans-serif" font-weight="400" font-size="16" transform="translate(170.206 410)">Proces</text><text font-family="Poppins,Poppins_MSFontService,sans-serif" font-weight="400" font-size="16" transform="translate(223.706 410)">s</text><path d="M295.5 280.167C295.5 275.933 298.933 272.5 303.167 272.5L461.833 272.5C466.068 272.5 469.5 275.933 469.5 280.167L469.5 310.833C469.5 315.068 466.068 318.5 461.833 318.5L303.167 318.5C298.933 318.5 295.5 315.068 295.5 310.833Z" stroke="#172C51" stroke-width="3" stroke-miterlimit="8" fill="#FFFFFF" fill-rule="evenodd"/><text font-family="Poppins,Poppins_MSFontService,sans-serif" font-weight="400" font-size="16" transform="translate(336.003 300)">Use Fuzzing</text><path d="M295.5 499.167C295.5 494.933 298.933 491.5 303.167 491.5L461.833 491.5C466.068 491.5 469.5 494.933 469.5 499.167L469.5 529.833C469.5 534.068 466.068 537.5 461.833 537.5L303.167 537.5C298.933 537.5 295.5 534.068 295.5 529.833Z" stroke="#172C51" stroke-width="3" stroke-miterlimit="8" fill="#FFFFFF" fill-rule="evenodd"/><text font-family="Poppins,Poppins_MSFontService,sans-serif" font-weight="400" font-size="16" transform="translate(332.42 520)">Use</text><text fill="#5A6ACF" font-family="Poppins,Poppins_MSFontService,sans-serif" font-weight="400" font-size="16" transform="translate(365.92 520)">URL</text><text font-family="Poppins,Poppins_MSFontService,sans-serif" font-weight="400" font-size="16" transform="translate(397.587 520)">only</text><path d="M507.5 191.167C507.5 186.933 510.933 183.5 515.167 183.5L672.833 183.5C677.068 183.5 680.5 186.933 680.5 191.167L680.5 221.833C680.5 226.068 677.068 229.5 672.833 229.5L515.167 229.5C510.933 229.5 507.5 226.068 507.5 221.833Z" stroke="#172C51" stroke-width="3" stroke-miterlimit="8" fill="#FFFFFF" fill-rule="evenodd"/><text font-family="Poppins,Poppins_MSFontService,sans-serif" font-weight="400" font-size="16" transform="translate(535.97 202)">Fuzzing output</text><text font-family="Poppins,Poppins_MSFontService,sans-serif" font-weight="400" font-size="16" transform="translate(563.137 221)">existing</text><path d="M507.5 367.167C507.5 362.933 510.933 359.5 515.167 359.5L672.833 359.5C677.068 359.5 680.5 362.933 680.5 367.167L680.5 397.833C680.5 402.068 677.068 405.5 672.833 405.5L515.167 405.5C510.933 405.5 507.5 402.068 507.5 397.833Z" stroke="#172C51" stroke-width="3" stroke-miterlimit="8" fill="#FFFFFF" fill-rule="evenodd"/><text font-family="Poppins,Poppins_MSFontService,sans-serif" font-weight="400" font-size="16" transform="translate(523.137 387)">No Fuzzing output</text><path d="M704.5 143.167C704.5 138.933 707.933 135.5 712.167 135.5L869.833 135.5C874.068 135.5 877.5 138.933 877.5 143.167L877.5 173.833C877.5 178.068 874.068 181.5 869.833 181.5L712.167 181.5C707.933 181.5 704.5 178.068 704.5 173.833Z" stroke="#172C51" stroke-width="3" stroke-miterlimit="8" fill="#FFFFFF" fill-rule="evenodd"/><text font-family="Poppins,Poppins_MSFontService,sans-serif" font-weight="400" font-size="16" transform="translate(730.441 164)">No</text><text fill="#5A6ACF" font-family="Poppins,Poppins_MSFontService,sans-serif" font-weight="400" font-size="16" transform="translate(756.108 164)">URL</text><text font-family="Poppins,Poppins_MSFontService,sans-serif" font-weight="400" font-size="16" transform="translate(787.774 164)">entered</text><path d="M943.5 436.167C943.5 431.933 946.933 428.5 951.167 428.5L1109.83 428.5C1114.07 428.5 1117.5 431.933 1117.5 436.167L1117.5 466.833C1117.5 471.068 1114.07 474.5 1109.83 474.5L951.167 474.5C946.933 474.5 943.5 471.068 943.5 466.833Z" stroke="#172C51" stroke-width="3" stroke-miterlimit="8" fill="#FFFFFF" fill-rule="evenodd"/><text font-family="Poppins,Poppins_MSFontService,sans-serif" font-weight="400" font-size="16" transform="translate(994.664 456)">Type</text><text fill="#5A6ACF" font-family="Poppins,Poppins_MSFontService,sans-serif" font-weight="400" font-size="16" transform="translate(1037.5 456)">UR</text><text fill="#5A6ACF" font-family="Poppins,Poppins_MSFontService,sans-serif" font-weight="400" font-size="16" transform="translate(1058 456)">L</text><path d="M704.5 237.167C704.5 232.933 707.933 229.5 712.167 229.5L869.833 229.5C874.068 229.5 877.5 232.933 877.5 237.167L877.5 267.833C877.5 272.068 874.068 275.5 869.833 275.5L712.167 275.5C707.933 275.5 704.5 272.068 704.5 267.833Z" stroke="#172C51" stroke-width="3" stroke-miterlimit="8" fill="#FFFFFF" fill-rule="evenodd"/><text fill="#5A6ACF" font-family="Poppins,Poppins_MSFontService,sans-serif" font-weight="400" font-size="16" transform="translate(743.274 257)">URL</text><text font-family="Poppins,Poppins_MSFontService,sans-serif" font-weight="400" font-size="16" transform="translate(774.941 257)">entered</text><path d="M941.5 237.167C941.5 232.933 944.933 229.5 949.167 229.5L1107.83 229.5C1112.07 229.5 1115.5 232.933 1115.5 237.167L1115.5 267.833C1115.5 272.068 1112.07 275.5 1107.83 275.5L949.167 275.5C944.933 275.5 941.5 272.068 941.5 267.833Z" stroke="#172C51" stroke-width="3" stroke-miterlimit="8" fill="#FFFFFF" fill-rule="evenodd"/><text font-family="Poppins,Poppins_MSFontService,sans-serif" font-weight="400" font-size="16" transform="translate(959.05 248)">Start new Fuzzing</text><text font-family="Poppins,Poppins_MSFontService,sans-serif" font-weight="400" font-size="16" transform="translate(1007.88 267)">Scan</text><path d="M941.5 143.167C941.5 138.933 944.933 135.5 949.167 135.5L1107.83 135.5C1112.07 135.5 1115.5 138.933 1115.5 143.167L1115.5 173.833C1115.5 178.068 1112.07 181.5 1107.83 181.5L949.167 181.5C944.933 181.5 941.5 178.068 941.5 173.833Z" stroke="#172C51" stroke-width="3" stroke-miterlimit="8" fill="#FFFFFF" fill-rule="evenodd"/><text font-family="Poppins,Poppins_MSFontService,sans-serif" font-weight="400" font-size="16" transform="translate(976.883 154)">Use previous</text><text font-family="Poppins,Poppins_MSFontService,sans-serif" font-weight="400" font-size="16" transform="translate(998.97 173)">Fuzzing</text><path d="M180.5 382.453 180.5 295.5 295.296 295.5" stroke="#000000" stroke-width="3" stroke-miterlimit="8" fill="none" fill-rule="evenodd"/><path d="M0 0 86.6812 0 86.6812 114.796" stroke="#000000" stroke-width="3" stroke-miterlimit="8" fill="none" fill-rule="evenodd" transform="matrix(1.83697e-16 1 1 -1.83697e-16 180.5 428.5)"/><path d="M469.5 295.5 488.607 295.5 488.607 382.453 507.713 382.453" stroke="#000000" stroke-width="3" stroke-miterlimit="8" fill="none" fill-rule="evenodd"/><path d="M0 0 19.1067 0 19.1067 88.969 38.2133 88.969" stroke="#000000" stroke-width="3" stroke-miterlimit="8" fill="none" fill-rule="evenodd" transform="matrix(-1 1.22465e-16 1.22465e-16 1 507.713 206.5)"/><path d="M0 0 11.6504 0 11.6504 47.5723 23.3008 47.5723" stroke="#000000" stroke-width="3" stroke-miterlimit="8" fill="none" fill-rule="evenodd" transform="matrix(-1 1.22465e-16 1.22465e-16 1 703.801 158.5)"/><path d="M703.801 252.558 692.15 252.558 692.15 206.5 680.5 206.5" stroke="#000000" stroke-width="3" stroke-miterlimit="8" fill="none" fill-rule="evenodd"/><path d="M681.5 382.5 811.83 382.5 811.83 451.588 942.16 451.588" stroke="#000000" stroke-width="3" stroke-miterlimit="8" fill="none" fill-rule="evenodd"/><path d="M0 0 342.523 0 342.523 63.652 472.543 63.652" stroke="#000000" stroke-width="3" stroke-miterlimit="8" fill="none" fill-rule="evenodd" transform="matrix(1 0 0 -1 469.5 515.152)"/><path d="M0 0 63.6892 0.000104987" stroke="#000000" stroke-width="3" stroke-miterlimit="8" fill="none" fill-rule="evenodd" transform="matrix(1 0 0 -1 877.5 158.5)"/><path d="M877.5 252.5 941.189 252.5" stroke="#000000" stroke-width="3" stroke-miterlimit="8" fill="none" fill-rule="evenodd"/></g></svg>