<?xml version="1.0" standalone="no"?>
<!DOCTYPE svg PUBLIC "-//W3C//DTD SVG 20010904//EN"
 "http://www.w3.org/TR/2001/REC-SVG-20010904/DTD/svg10.dtd">
<svg version="1.0" xmlns="http://www.w3.org/2000/svg"
 width="295.000000pt" height="300.000000pt" viewBox="0 0 295.000000 300.000000"
 preserveAspectRatio="xMidYMid meet">

<g transform="translate(0.000000,300.000000) scale(0.100000,-0.100000)"
fill="#5A6ACF" stroke="none">
<path d="M380 2622 c0 -21 5 -28 20 -29 11 -1 20 2 20 8 0 5 9 9 20 9 11 0 20
-4 20 -10 0 -7 352 -10 1035 -10 l1035 0 0 -1165 0 -1165 -1045 0 -1045 0 0
1154 c0 1144 0 1155 -20 1161 -11 3 -24 3 -30 0 -7 -4 -10 -405 -10 -1191 l0
-1184 1105 0 1105 0 0 1225 0 1225 -1105 0 -1105 0 0 -28z"/>
<path d="M1075 2187 l-410 -223 1 -230 c1 -166 6 -255 18 -322 69 -385 306
-716 651 -910 150 -84 150 -84 253 -33 353 174 601 480 698 863 25 95 27 123
31 368 l5 265 -411 223 c-226 122 -414 222 -418 222 -5 0 -192 -101 -418 -223z
m821 -34 l397 -216 -6 -216 c-6 -221 -13 -279 -48 -413 -88 -339 -347 -653
-662 -804 -39 -19 -77 -34 -84 -34 -24 0 -187 87 -263 141 -151 107 -307 290
-396 467 -40 78 -96 247 -115 347 -9 46 -14 147 -14 294 l0 223 390 214 c215
117 393 213 397 214 3 0 185 -98 404 -217z"/>
<path d="M1129 2111 l-364 -198 -3 -184 c-2 -104 2 -218 8 -263 55 -378 293
-716 633 -895 l84 -45 46 18 c78 29 251 151 336 236 99 98 167 193 231 320 97
193 130 352 130 632 l0 176 -317 173 c-175 94 -341 184 -369 200 l-50 28 -365
-198z m718 -38 l345 -187 -5 -215 c-4 -192 -7 -227 -30 -314 -87 -327 -315
-617 -595 -756 l-73 -36 -66 35 c-175 92 -345 254 -458 435 -121 194 -174 413
-175 722 0 116 1 123 23 137 46 29 672 366 681 366 4 0 164 -84 353 -187z"/>
<path d="M1388 1934 c-352 -85 -470 -514 -214 -770 226 -225 599 -157 733 133
104 225 11 493 -207 600 -106 51 -205 63 -312 37z m187 -35 c127 -23 232 -105
292 -227 33 -66 38 -87 42 -160 2 -47 -2 -104 -9 -130 -69 -260 -364 -388
-607 -264 -145 74 -240 268 -214 433 28 173 154 308 321 345 71 16 103 16 175
3z"/>
<path d="M1442 1849 c-99 -13 -225 -98 -269 -183 -108 -207 -7 -453 216 -527
166 -56 355 31 434 199 28 59 32 77 32 152 -1 108 -32 183 -108 258 -83 81
-187 116 -305 101z m93 -51 c28 -22 85 -129 85 -160 0 -16 -13 -18 -125 -18
-124 0 -125 0 -125 23 0 38 59 146 88 162 36 19 45 19 77 -7z m-160 -32 c-9
-14 -25 -52 -35 -83 l-18 -58 -61 -3 c-33 -2 -61 0 -61 3 0 17 33 64 67 97 35
34 113 81 121 73 2 -2 -4 -15 -13 -29z m323 -23 c33 -25 92 -98 92 -115 0 -4
-29 -8 -65 -8 -55 0 -65 3 -65 18 0 14 -18 60 -57 151 -7 16 46 -9 95 -46z
m-382 -253 l-1 -100 -67 0 c-77 0 -80 3 -80 100 0 97 3 100 81 100 l67 0 0
-100z m319 50 c4 -27 4 -72 0 -100 l-7 -50 -133 0 c-153 0 -145 -5 -145 100 0
105 -8 100 145 100 l133 0 7 -50z m179 28 c8 -30 8 -107 0 -147 l-6 -31 -69 0
-69 0 0 100 0 100 69 0 c63 0 69 -2 75 -22z m-480 -252 c4 -18 17 -55 31 -82
13 -26 23 -50 21 -52 -6 -5 -66 27 -105 57 -29 22 -81 90 -81 106 0 3 29 5 64
5 l64 0 6 -34z m286 24 c0 -29 -45 -123 -72 -149 -56 -55 -103 -35 -149 63
-47 98 -49 96 96 96 73 0 125 -4 125 -10z m153 -21 c-24 -42 -106 -115 -143
-127 -35 -13 -36 -12 -11 36 10 20 24 56 31 80 l13 42 64 0 64 0 -18 -31z"/>
</g>
</svg>
